#!OML:ASF F:\VICON\USERDATA\INSTALL\rory3\rory3.ASF
:FULLY-SPECIFIED
:DEGREES
19
root 0.2897805686976002 17.962878640229608 -13.903449981712075 -1.8614492287301783 -1.1804426772402115 -7.465771803360412
lfemur -30.575870289322573 -0.7620168360682029 -11.347525974537156
ltibia 52.58535987068754
lfoot -6.272517689265008 1.7598648346237828
ltoes -4.79218059948534
rfemur -2.3621706148203963 5.706414118876117 35.27818824294776
rtibia 27.821543482474503
rfoot -19.274301338023122 -11.60359021606602
rtoes 6.460366632527506
lowerback 11.703158234227535 1.1141755980322763 5.123007426091553
upperback 0.34004848760617623 2.334886420748337 2.5839668437824512
thorax -6.130802362051069 1.0326092335693728 -0.5452741515813371
lowerneck -15.907232456715 -3.3791315910555006 -1.7046518558312274
upperneck 20.74785140603039 -4.240256866892082 -0.06880448202582312
head 9.17559302273267 -2.12202967117523 -0.27230301856102646
lclavicle -2.027721810536152e-15 -7.125406743972582e-16
lhumerus -32.70850583540467 8.751579310147367 81.26428706364833
lradius 23.839242044997604
lwrist 6.658062818801718
lhand -29.254676429315435 11.133502593934953
lfingers 7.12502
lthumb -2.5976675009140537 41.09896979513834
rclavicle -2.027721810536152e-15 -7.125406743972582e-16
rhumerus -23.8965159447347 -11.959143311105132 -81.88648206348219
rradius 28.85606715651396
rwrist 0.3008733058791986
rhand -19.533248145181005 22.564443519569092
rfingers 7.12502
rthumb 6.790437897705369 -7.305309321617113
20
root 0.3389180950626613 17.912285027962938 -13.070630761226806 -0.7961279362096019 -1.7246177052482738 -8.075178290938148
lfemur -29.960794772532864 -2.4236047768881113 -9.730705761627677
ltibia 37.202475542205356
lfoot -3.499111789764174 3.0946435529682566
ltoes -5.510644154101945
rfemur 0.6222511323400823 5.420265653053393 35.89173138860678
rtibia 25.51924305087949
rfoot -19.684761197023775 -12.13222469765963
rtoes -1.6201618448538895
lowerback 11.058918011090093 1.4297086096712082 5.928134133556633
upperback 0.28316470254211545 2.8104175506795386 2.5750576811380257
thorax -5.7621930405683255 1.2513666891308415 -1.0597952849556476
lowerneck -16.652868205215523 -3.34023040567708 -1.502901878047921
upperneck 20.96109526751445 -4.191683652764204 -0.2051216060962382
head 9.38659844587954 -2.0947985210920774 -0.3623115641701322
lclavicle -2.027721893718167e-15 -7.125406802996159e-16
lhumerus -33.444712846618586 9.68740551730156 80.6088088285807
lradius 24.22520263054369
lwrist 4.149710093757584
lhand -26.412052785897338 33.49460379571019
lfingers 7.12502
lthumb 0.14777569201270024 63.46884991241559
rclavicle -2.027721893718167e-15 -7.125406802996159e-16
rhumerus -21.60660322324209 -10.02096309423757 -82.35680044452035
rradius 30.33796928060163
rwrist -0.7624723757022984
rhand -19.21653574449333 23.075817898153062
rfingers 7.12502
rthumb 7.096089478215155 -6.784083187851715
21
root 0.398037663985214 17.863134258312886 -10.933634746181902 -0.7301790452131989 -1.477574027605264 -7.5877486689799944
lfemur -27.186362128791075 -5.444820611168949 -9.735539872211975
ltibia 22.828975026904626
lfoot -3.5866076721683893 5.022739354377432
ltoes -6.0906539807794235
rfemur 3.825437465022615 5.173854038381432 35.34023011611778
rtibia 23.17204968927403
rfoot -20.358556900440036 -12.345910130911326
rtoes -2.1469021613844324
lowerback 10.88656383037179 1.538162982970221 6.22496194156053
upperback 0.12467202636598573 2.9357691478480676 2.3937082340584475
thorax -5.916551468531331 1.3336604403393109 -1.3640232415320568
lowerneck -16.52790133639739 -3.3997656088882673 -1.638034537663079
upperneck 20.98018744812183 -4.409505820255449 0.26796232423741917
head 9.40101793732957 -2.1201622752289264 -0.17821776462973393
lclavicle -2.026623406550051e-15 -7.1186456896291845e-16
lhumerus -33.36031901297115 8.981769578562115 80.15262334082615
lradius 24.05122724830931
lwrist 4.904748749273744
lhand -28.04145760634548 21.650573773535616
lfingers 7.12502
lthumb -1.6544888385166605 52.64118907391231
rclavicle -2.0264614651927924e-15 -7.11736024271442e-16
rhumerus -20.69153452901461 -9.542759731192351 -82.2718219229033
rradius 32.971428944015976
rwrist -1.161102233311806
rhand -18.707386895823454 23.57832223072741
rfingers 7.12502
rthumb 7.422736298085894 -6.651223705739293
22
root 0.4587794204753526 17.788441666554352 -9.67630931870475 -0.8261579006679733 -1.2130260188740944 -7.158522820480633
lfemur -25.724553131903214 -5.580820846020869 -10.68529414983153
ltibia 12.964884485747902
lfoot -3.7706167847046372 6.5957399499331375
ltoes -10.002740786204667
rfemur 6.371904910047936 4.8781300497731515 34.58494698991054
rtibia 22.60325768394166
rfoot -20.530418442432122 -12.064001558229474
rtoes -4.952373396692668
lowerback 10.70592185924072 1.5890737827813382 6.194615175176376
upperback 0.042621271688730866 3.131260887073897 2.2536484695527457
thorax -5.996344397035905 1.4068592542909848 -1.5817377723928312
lowerneck -16.552571967155707 -3.44767856726409 -1.6504678143428362
upperneck 20.924676679069 -4.564557356244946 0.5376076273350517
head 9.381996815811348 -2.174016624805755 -0.1183702527327079
lclavicle -2.0266208315143357e-15 -7.118549032900925e-16
lhumerus -33.146488546752124 8.142130484864033 79.56480803972588
lradius 24.083322253720517
lwrist 7.251771512275315
lhand -28.858068037345543 20.132041661510783
lfingers 7.12502
lthumb -2.340662467445119 51.36124453490447
rclavicle -2.0259435779428015e-15 -7.114054364056062e-16
rhumerus -20.588821455772205 -9.916898225812604 -82.07662612767768
rradius 34.607357478474476
rwrist -1.5531212288247849
rhand -18.524706611526664 22.565704039374676
rfingers 7.12502
rthumb 7.715784173865936 -7.490149371260466
23
root 0.5195349902788096 17.701257024517627 -8.366910534790922 -1.013560689072991 -1.0317711133178433 -6.403917675150121
lfemur -25.308116361949608 -4.253076678808486 -12.859680194788606
ltibia 12.523058584524449
lfoot -3.3930875520172865 4.081741489785625
ltoes -10.147783431350872
rfemur 7.991250739471484 4.744287622589109 33.51791069968388
rtibia 24.603925332818555
rfoot -19.84516241554125 -11.213267773822476
rtoes -7.819929728101583
lowerback 10.605617634600115 1.6470775488923433 5.7408620585861705
upperback -0.08570488567368205 3.1246772694720972 2.084637218935754
thorax -6.014133808692038 1.4390634249063803 -1.4360916376488049
lowerneck -16.55878963684888 -3.513996732616027 -1.711757725993429
upperneck 20.8297418929017 -4.679834534554949 0.6921072105068942
head 9.351350418971265 -2.202646409052235 -0.07735138927160878
lclavicle -2.026422214213777e-15 -7.117262680832278e-16
lhumerus -32.71556947264651 7.375055582815266 78.80196912312985
lradius 24.112093312134075
lwrist 8.26586074152639
lhand -29.46365891114171 20.247886299777605
lfingers 7.12502
lthumb -2.9433817880774407 50.93266200866663
rclavicle -2.0257978510433166e-15 -7.113124867786372e-16
rhumerus -21.16043521989208 -10.691120803564868 -81.85044824172502
rradius 35.40908409437419
rwrist -1.1993289342565285
rhand -18.450696886237452 22.885032984786953
rfingers 7.12502
rthumb 7.633176247587451 -7.5200656408713735
